<?xml version="1.0" standalone="no"?><!-- Generator: Gravit.io --><svg xmlns="http://www.w3.org/2000/svg" xmlns:xlink="http://www.w3.org/1999/xlink" style="isolation:isolate" viewBox="0 0 82.715 82.715" width="82.715" height="82.715"><defs><clipPath id="_clipPath_RbnUn3e7BhLzjMoNjRINUmPYPeEGqfkV"><rect width="82.715" height="82.715"/></clipPath></defs><g clip-path="url(#_clipPath_RbnUn3e7BhLzjMoNjRINUmPYPeEGqfkV)"><clipPath id="_clipPath_kJ0KYdLxUkWwr2XlmHqlN25OInD6GqmB"><rect x="0" y="0" width="82.715" height="82.715" transform="matrix(1,0,0,1,0,0)" fill="rgb(255,255,255)"/></clipPath><g clip-path="url(#_clipPath_kJ0KYdLxUkWwr2XlmHqlN25OInD6GqmB)"><g><g><g><path d=" M 74.007 8.708 L 74.007 74.007 L 74.007 74.007 L 62.357 64.057 C 62.357 64.057 62.357 64.057 62.357 64.057 L 62.357 22.057 C 62.357 22.057 62.357 22.057 62.357 22.057 L 74.007 8.708 L 74.007 8.708 Z  M 60.481 8.707 L 22.234 8.707 L 22.234 8.707 L 29.057 22.057 L 29.057 22.057 L 29.057 22.057 L 29.057 41.257 L 53.657 41.257 L 53.657 22.057 L 53.657 22.057 L 60.481 8.707 L 60.481 8.707 L 60.481 8.707 Z  M 60.481 74.007 L 22.234 74.007 L 22.234 74.007 L 29.057 64.057 L 29.057 64.057 L 29.057 45.757 L 53.657 45.757 L 53.657 64.057 L 53.657 64.057 L 60.481 74.007 L 60.481 74.007 L 60.481 74.007 Z  M 8.708 74.007 L 8.707 74.007 L 8.707 8.707 L 8.707 8.707 L 8.707 8.707 L 8.708 8.707 L 8.708 8.707 L 8.708 8.707 L 20.357 22.057 L 20.357 22.057 L 20.357 22.057 L 20.357 64.057 L 20.357 64.057 L 8.708 74.007 L 8.708 74.007 L 8.708 74.007 L 8.708 74.007 Z  M 0 0 L 82.715 0 L 82.715 82.715 L 0 82.715 L 0 0 L 0 0 L 0 0 L 0 0 L 0 0 L 0 0 L 0 0 Z " fill-rule="evenodd" fill="rgb(161,232,219)"/></g></g></g></g></g></svg>