<?xml version="1.0" standalone="no"?><!-- Generator: Gravit.io --><svg xmlns="http://www.w3.org/2000/svg" xmlns:xlink="http://www.w3.org/1999/xlink" style="isolation:isolate" viewBox="0 0 4000 4000" width="4000" height="4000"><defs><clipPath id="_clipPath_cmT6hyiJrFd1EgkAySwbReH81R4OOCLP"><rect width="4000" height="4000"/></clipPath></defs><g clip-path="url(#_clipPath_cmT6hyiJrFd1EgkAySwbReH81R4OOCLP)"><clipPath id="_clipPath_idwTpwP4G1SYSG3eNAvBnFbJsnbIbm1m"><rect x="0" y="0" width="4000" height="4000" transform="matrix(1,0,0,1,0,0)" fill="rgb(255,255,255)"/></clipPath><g clip-path="url(#_clipPath_idwTpwP4G1SYSG3eNAvBnFbJsnbIbm1m)"><g><g><g><path d=" M 3578.892 421.109 L 3578.892 3578.892 L 3578.892 3578.892 L 3015.511 3097.721 C 3015.511 3097.721 3015.511 3097.721 3015.511 3097.721 L 3015.511 1066.651 C 3015.511 1066.651 3015.511 1066.651 3015.511 1066.651 L 3578.892 421.109 Z  M 2924.79 421.06 L 1075.21 421.06 L 1075.21 421.06 L 1405.162 1066.651 L 1405.162 1066.651 L 1405.162 1066.651 L 1405.162 1995.14 L 2594.789 1995.14 L 2594.789 1066.651 L 2594.789 1066.651 L 2924.79 421.06 L 2924.79 421.06 Z  M 2924.79 3578.892 L 1075.21 3578.892 L 1075.21 3578.892 L 1405.162 3097.721 L 1405.162 3097.721 L 1405.162 2212.755 L 2594.789 2212.755 L 2594.789 3097.721 L 2594.789 3097.721 L 2924.79 3578.892 L 2924.79 3578.892 Z  M 421.109 3578.892 L 421.06 3578.892 L 421.06 421.06 L 421.06 421.06 L 421.06 421.06 L 421.109 421.06 L 421.109 421.06 L 421.109 421.06 L 984.441 1066.651 L 984.441 1066.651 L 984.441 1066.651 L 984.441 3097.721 L 984.441 3097.721 L 421.109 3578.892 L 421.109 3578.892 L 421.109 3578.892 Z  M 0 0 L 4000 0 L 4000 4000 L 0 4000 L 0 0 L 0 0 L 0 0 L 0 0 L 0 0 L 0 0 Z " fill-rule="evenodd" fill="rgb(19,19,19)"/></g></g></g></g></g></svg>