<?xml version="1.0" standalone="no"?><!-- Generator: Gravit.io --><svg xmlns="http://www.w3.org/2000/svg" xmlns:xlink="http://www.w3.org/1999/xlink" style="isolation:isolate" viewBox="0 0 385.57 78.636" width="385.57" height="78.636"><defs><clipPath id="_clipPath_aIfx5ey8gpfk4z7mjjoshmurG03lMzfm"><rect width="385.57" height="78.636"/></clipPath></defs><g clip-path="url(#_clipPath_aIfx5ey8gpfk4z7mjjoshmurG03lMzfm)"><clipPath id="_clipPath_2uAJ2nckwHBvHxXutIClSDez4wWM6gMY"><rect x="0" y="0" width="385.57" height="78.636" transform="matrix(1,0,0,1,0,0)" fill="rgb(255,255,255)"/></clipPath><g clip-path="url(#_clipPath_2uAJ2nckwHBvHxXutIClSDez4wWM6gMY)"><g><g><g><path d=" M 70.357 8.279 L 70.357 70.357 L 70.357 70.357 L 59.282 60.898 C 59.282 60.898 59.282 60.898 59.282 60.898 L 59.282 20.969 C 59.282 20.969 59.282 20.969 59.282 20.969 L 70.357 8.279 Z  M 57.498 8.278 L 21.138 8.278 L 21.138 8.278 L 27.624 20.969 L 27.624 20.969 L 27.624 20.969 L 27.624 39.222 L 51.011 39.222 L 51.011 20.969 L 51.011 20.969 L 57.498 8.278 L 57.498 8.278 Z  M 57.498 70.357 L 21.138 70.357 L 21.138 70.357 L 27.624 60.898 L 27.624 60.898 L 27.624 43.501 L 51.011 43.501 L 51.011 60.898 L 51.011 60.898 L 57.498 70.357 L 57.498 70.357 Z  M 8.279 70.357 L 8.278 70.357 L 8.278 8.278 L 8.278 8.278 L 8.278 8.278 L 8.279 8.278 L 8.279 8.278 L 8.279 8.278 L 19.353 20.969 L 19.353 20.969 L 19.353 20.969 L 19.353 60.898 L 19.353 60.898 L 8.279 70.357 L 8.279 70.357 L 8.279 70.357 Z  M 0 0 L 78.636 0 L 78.636 78.636 L 0 78.636 L 0 0 L 0 0 L 0 0 L 0 0 L 0 0 L 0 0 Z " fill-rule="evenodd" fill="rgb(47,47,47)"/></g><path d=" M 102.36 58.141 L 102.36 58.141 L 102.36 58.141 Q 104.186 58.141 105.783 57.457 L 105.783 57.457 L 105.783 57.457 Q 107.38 56.772 108.578 55.318 L 108.578 55.318 L 108.578 55.318 Q 109.776 53.863 110.489 51.524 L 110.489 51.524 L 110.489 51.524 Q 111.202 49.186 111.202 45.877 L 111.202 45.877 L 111.202 45.877 Q 111.202 42.569 110.489 40.23 L 110.489 40.23 L 110.489 40.23 Q 109.776 37.892 108.578 36.437 L 108.578 36.437 L 108.578 36.437 Q 107.38 34.982 105.783 34.298 L 105.783 34.298 L 105.783 34.298 Q 104.186 33.613 102.36 33.613 L 102.36 33.613 L 102.36 33.613 Q 100.535 33.613 98.938 34.298 L 98.938 34.298 L 98.938 34.298 Q 97.341 34.982 96.143 36.437 L 96.143 36.437 L 96.143 36.437 Q 94.945 37.892 94.232 40.23 L 94.232 40.23 L 94.232 40.23 Q 93.519 42.569 93.519 45.877 L 93.519 45.877 L 93.519 45.877 Q 93.519 49.186 94.232 51.524 L 94.232 51.524 L 94.232 51.524 Q 94.945 53.863 96.143 55.318 L 96.143 55.318 L 96.143 55.318 Q 97.341 56.772 98.938 57.457 L 98.938 57.457 L 98.938 57.457 Q 100.535 58.141 102.36 58.141 Z  M 102.36 29.906 L 102.36 29.906 L 102.36 29.906 Q 106.182 29.906 109.405 30.961 L 109.405 30.961 L 109.405 30.961 Q 112.628 32.016 114.909 34.041 L 114.909 34.041 L 114.909 34.041 Q 117.191 36.066 118.475 39.061 L 118.475 39.061 L 118.475 39.061 Q 119.758 42.056 119.758 45.877 L 119.758 45.877 L 119.758 45.877 Q 119.758 49.756 118.475 52.722 L 118.475 52.722 L 118.475 52.722 Q 117.191 55.688 114.909 57.713 L 114.909 57.713 L 114.909 57.713 Q 112.628 59.738 109.405 60.794 L 109.405 60.794 L 109.405 60.794 Q 106.182 61.849 102.36 61.849 L 102.36 61.849 L 102.36 61.849 Q 98.482 61.849 95.287 60.794 L 95.287 60.794 L 95.287 60.794 Q 92.093 59.738 89.811 57.713 L 89.811 57.713 L 89.811 57.713 Q 87.53 55.688 86.246 52.722 L 86.246 52.722 L 86.246 52.722 Q 84.963 49.756 84.963 45.877 L 84.963 45.877 L 84.963 45.877 Q 84.963 42.056 86.246 39.061 L 86.246 39.061 L 86.246 39.061 Q 87.53 36.066 89.811 34.041 L 89.811 34.041 L 89.811 34.041 Q 92.093 32.016 95.287 30.961 L 95.287 30.961 L 95.287 30.961 Q 98.482 29.906 102.36 29.906 Z  M 134.304 20.779 L 134.304 60.708 L 126.318 60.708 L 126.318 20.779 L 134.304 20.779 Z  M 158.261 58.141 L 158.261 58.141 L 158.261 58.141 Q 160.086 58.141 161.683 57.457 L 161.683 57.457 L 161.683 57.457 Q 163.28 56.772 164.478 55.318 L 164.478 55.318 L 164.478 55.318 Q 165.676 53.863 166.389 51.524 L 166.389 51.524 L 166.389 51.524 Q 167.102 49.186 167.102 45.877 L 167.102 45.877 L 167.102 45.877 Q 167.102 42.569 166.389 40.23 L 166.389 40.23 L 166.389 40.23 Q 165.676 37.892 164.478 36.437 L 164.478 36.437 L 164.478 36.437 Q 163.28 34.982 161.683 34.298 L 161.683 34.298 L 161.683 34.298 Q 160.086 33.613 158.261 33.613 L 158.261 33.613 L 158.261 33.613 Q 156.435 33.613 154.838 34.298 L 154.838 34.298 L 154.838 34.298 Q 153.241 34.982 152.043 36.437 L 152.043 36.437 L 152.043 36.437 Q 150.845 37.892 150.132 40.23 L 150.132 40.23 L 150.132 40.23 Q 149.419 42.569 149.419 45.877 L 149.419 45.877 L 149.419 45.877 Q 149.419 49.186 150.132 51.524 L 150.132 51.524 L 150.132 51.524 Q 150.845 53.863 152.043 55.318 L 152.043 55.318 L 152.043 55.318 Q 153.241 56.772 154.838 57.457 L 154.838 57.457 L 154.838 57.457 Q 156.435 58.141 158.261 58.141 Z  M 158.261 29.906 L 158.261 29.906 L 158.261 29.906 Q 162.083 29.906 165.305 30.961 L 165.305 30.961 L 165.305 30.961 Q 168.528 32.016 170.81 34.041 L 170.81 34.041 L 170.81 34.041 Q 173.092 36.066 174.375 39.061 L 174.375 39.061 L 174.375 39.061 Q 175.658 42.056 175.658 45.877 L 175.658 45.877 L 175.658 45.877 Q 175.658 49.756 174.375 52.722 L 174.375 52.722 L 174.375 52.722 Q 173.092 55.688 170.81 57.713 L 170.81 57.713 L 170.81 57.713 Q 168.528 59.738 165.305 60.794 L 165.305 60.794 L 165.305 60.794 Q 162.083 61.849 158.261 61.849 L 158.261 61.849 L 158.261 61.849 Q 154.382 61.849 151.188 60.794 L 151.188 60.794 L 151.188 60.794 Q 147.993 59.738 145.712 57.713 L 145.712 57.713 L 145.712 57.713 Q 143.43 55.688 142.147 52.722 L 142.147 52.722 L 142.147 52.722 Q 140.863 49.756 140.863 45.877 L 140.863 45.877 L 140.863 45.877 Q 140.863 42.056 142.147 39.061 L 142.147 39.061 L 142.147 39.061 Q 143.43 36.066 145.712 34.041 L 145.712 34.041 L 145.712 34.041 Q 147.993 32.016 151.188 30.961 L 151.188 30.961 L 151.188 30.961 Q 154.382 29.906 158.261 29.906 Z  M 189.063 37.321 L 189.063 37.321 L 189.063 37.321 Q 189.063 38.633 190.232 39.717 L 190.232 39.717 L 190.232 39.717 Q 191.402 40.801 194.197 41.599 L 194.197 41.599 L 203.038 44.166 L 203.038 44.166 Q 207.145 45.364 209.37 47.417 L 209.37 47.417 L 209.37 47.417 Q 211.594 49.471 211.594 52.722 L 211.594 52.722 L 211.594 52.722 Q 211.594 54.776 210.739 56.458 L 210.739 56.458 L 210.739 56.458 Q 209.883 58.141 207.944 59.339 L 207.944 59.339 L 207.944 59.339 Q 206.004 60.537 202.924 61.193 L 202.924 61.193 L 202.924 61.193 Q 199.844 61.849 195.338 61.849 L 195.338 61.849 L 195.338 61.849 Q 192.999 61.849 190.746 61.507 L 190.746 61.507 L 190.746 61.507 Q 188.493 61.164 186.468 60.565 L 186.468 60.565 L 186.468 60.565 Q 184.443 59.966 182.789 59.196 L 182.789 59.196 L 182.789 59.196 Q 181.134 58.426 179.936 57.571 L 179.936 57.571 L 182.218 54.148 L 182.218 54.148 Q 184.614 55.631 187.837 56.744 L 187.837 56.744 L 187.837 56.744 Q 191.06 57.856 195.338 57.856 L 195.338 57.856 L 195.338 57.856 Q 199.616 57.856 201.327 56.715 L 201.327 56.715 L 201.327 56.715 Q 203.038 55.574 203.038 53.863 L 203.038 53.863 L 203.038 53.863 Q 203.038 52.551 201.84 51.496 L 201.84 51.496 L 201.84 51.496 Q 200.642 50.441 197.619 49.585 L 197.619 49.585 L 188.778 47.018 L 188.778 47.018 Q 185.127 45.934 182.817 43.909 L 182.817 43.909 L 182.817 43.909 Q 180.507 41.884 180.507 38.462 L 180.507 38.462 L 180.507 38.462 Q 180.507 36.637 181.334 35.068 L 181.334 35.068 L 181.334 35.068 Q 182.161 33.499 183.929 32.359 L 183.929 32.359 L 183.929 32.359 Q 185.698 31.218 188.436 30.562 L 188.436 30.562 L 188.436 30.562 Q 191.174 29.906 195.052 29.906 L 195.052 29.906 L 195.052 29.906 Q 199.787 29.906 203.637 31.189 L 203.637 31.189 L 203.637 31.189 Q 207.487 32.473 209.883 34.184 L 209.883 34.184 L 207.601 37.606 L 207.601 37.606 Q 205.263 36.123 202.297 35.011 L 202.297 35.011 L 202.297 35.011 Q 199.33 33.899 195.052 33.899 L 195.052 33.899 L 195.052 33.899 Q 192.029 33.899 190.546 34.868 L 190.546 34.868 L 190.546 34.868 Q 189.063 35.838 189.063 37.321 Z  M 233.27 29.906 L 233.27 29.906 L 233.27 29.906 Q 235.095 29.906 236.921 30.219 L 236.921 30.219 L 236.921 30.219 Q 238.746 30.533 240.429 31.075 L 240.429 31.075 L 240.429 31.075 Q 242.111 31.617 243.566 32.416 L 243.566 32.416 L 243.566 32.416 Q 245.02 33.214 246.104 34.184 L 246.104 34.184 L 243.823 37.606 L 243.823 37.606 Q 241.484 35.838 239.06 34.868 L 239.06 34.868 L 239.06 34.868 Q 236.635 33.899 233.84 33.899 L 233.84 33.899 L 233.84 33.899 Q 231.787 33.899 230.076 34.555 L 230.076 34.555 L 230.076 34.555 Q 228.364 35.211 227.11 36.665 L 227.11 36.665 L 227.11 36.665 Q 225.855 38.12 225.142 40.401 L 225.142 40.401 L 225.142 40.401 Q 224.429 42.683 224.429 45.877 L 224.429 45.877 L 224.429 45.877 Q 224.429 49.072 225.142 51.353 L 225.142 51.353 L 225.142 51.353 Q 225.855 53.635 227.167 55.089 L 227.167 55.089 L 227.167 55.089 Q 228.479 56.544 230.332 57.2 L 230.332 57.2 L 230.332 57.2 Q 232.186 57.856 234.411 57.856 L 234.411 57.856 L 234.411 57.856 Q 237.206 57.856 239.63 56.886 L 239.63 56.886 L 239.63 56.886 Q 242.054 55.917 244.393 54.148 L 244.393 54.148 L 246.675 57.571 L 246.675 57.571 Q 245.591 58.54 244.136 59.339 L 244.136 59.339 L 244.136 59.339 Q 242.682 60.138 240.999 60.679 L 240.999 60.679 L 240.999 60.679 Q 239.316 61.221 237.491 61.535 L 237.491 61.535 L 237.491 61.535 Q 235.666 61.849 233.84 61.849 L 233.84 61.849 L 233.84 61.849 Q 229.79 61.849 226.454 60.794 L 226.454 60.794 L 226.454 60.794 Q 223.117 59.738 220.778 57.713 L 220.778 57.713 L 220.778 57.713 Q 218.439 55.688 217.156 52.722 L 217.156 52.722 L 217.156 52.722 Q 215.872 49.756 215.872 45.877 L 215.872 45.877 L 215.872 45.877 Q 215.872 42.056 217.156 39.061 L 217.156 39.061 L 217.156 39.061 Q 218.439 36.066 220.721 34.041 L 220.721 34.041 L 220.721 34.041 Q 223.003 32.016 226.197 30.961 L 226.197 30.961 L 226.197 30.961 Q 229.391 29.906 233.27 29.906 Z  M 274.91 31.047 L 274.91 35.039 L 268.065 35.039 L 268.065 35.039 Q 264.186 35.039 262.133 37.121 L 262.133 37.121 L 262.133 37.121 Q 260.079 39.203 260.079 43.31 L 260.079 43.31 L 260.079 60.708 L 252.094 60.708 L 252.094 43.31 L 252.094 43.31 Q 252.094 37.492 255.773 34.269 L 255.773 34.269 L 255.773 34.269 Q 259.452 31.047 266.354 31.047 L 266.354 31.047 L 274.91 31.047 Z  M 294.874 57.856 L 294.874 57.856 L 294.874 57.856 Q 297.67 57.856 300.094 56.886 L 300.094 56.886 L 300.094 56.886 Q 302.518 55.917 304.857 54.148 L 304.857 54.148 L 307.138 57.571 L 307.138 57.571 Q 306.055 58.54 304.6 59.339 L 304.6 59.339 L 304.6 59.339 Q 303.145 60.138 301.463 60.679 L 301.463 60.679 L 301.463 60.679 Q 299.78 61.221 297.955 61.535 L 297.955 61.535 L 297.955 61.535 Q 296.129 61.849 294.304 61.849 L 294.304 61.849 L 294.304 61.849 Q 290.254 61.849 286.917 60.794 L 286.917 60.794 L 286.917 60.794 Q 283.58 59.738 281.242 57.713 L 281.242 57.713 L 281.242 57.713 Q 278.903 55.688 277.62 52.722 L 277.62 52.722 L 277.62 52.722 Q 276.336 49.756 276.336 45.877 L 276.336 45.877 L 276.336 45.877 Q 276.336 42.056 277.562 39.061 L 277.562 39.061 L 277.562 39.061 Q 278.789 36.066 280.985 34.041 L 280.985 34.041 L 280.985 34.041 Q 283.181 32.016 286.204 30.961 L 286.204 30.961 L 286.204 30.961 Q 289.227 29.906 292.878 29.906 L 292.878 29.906 L 292.878 29.906 Q 296.301 29.906 299.324 30.932 L 299.324 30.932 L 299.324 30.932 Q 302.347 31.959 304.571 33.927 L 304.571 33.927 L 304.571 33.927 Q 306.796 35.895 308.108 38.69 L 308.108 38.69 L 308.108 38.69 Q 309.42 41.485 309.42 45.022 L 309.42 45.022 L 309.42 49.015 L 285.063 49.015 L 285.063 49.015 Q 285.748 53.749 288.343 55.802 L 288.343 55.802 L 288.343 55.802 Q 290.939 57.856 294.874 57.856 Z  M 292.878 33.613 L 292.878 33.613 L 292.878 33.613 Q 291.224 33.613 289.798 34.241 L 289.798 34.241 L 289.798 34.241 Q 288.372 34.868 287.317 36.237 L 287.317 36.237 L 287.317 36.237 Q 286.261 37.606 285.605 39.774 L 285.605 39.774 L 285.605 39.774 Q 284.949 41.941 284.892 45.022 L 284.892 45.022 L 300.864 45.022 L 300.864 45.022 Q 300.864 42.056 300.179 39.888 L 300.179 39.888 L 300.179 39.888 Q 299.495 37.72 298.383 36.323 L 298.383 36.323 L 298.383 36.323 Q 297.27 34.925 295.816 34.269 L 295.816 34.269 L 295.816 34.269 Q 294.361 33.613 292.878 33.613 Z  M 333.092 57.856 L 333.092 57.856 L 333.092 57.856 Q 335.887 57.856 338.311 56.886 L 338.311 56.886 L 338.311 56.886 Q 340.736 55.917 343.074 54.148 L 343.074 54.148 L 345.356 57.571 L 345.356 57.571 Q 344.272 58.54 342.818 59.339 L 342.818 59.339 L 342.818 59.339 Q 341.363 60.138 339.68 60.679 L 339.68 60.679 L 339.68 60.679 Q 337.998 61.221 336.172 61.535 L 336.172 61.535 L 336.172 61.535 Q 334.347 61.849 332.522 61.849 L 332.522 61.849 L 332.522 61.849 Q 328.472 61.849 325.135 60.794 L 325.135 60.794 L 325.135 60.794 Q 321.798 59.738 319.459 57.713 L 319.459 57.713 L 319.459 57.713 Q 317.121 55.688 315.837 52.722 L 315.837 52.722 L 315.837 52.722 Q 314.554 49.756 314.554 45.877 L 314.554 45.877 L 314.554 45.877 Q 314.554 42.056 315.78 39.061 L 315.78 39.061 L 315.78 39.061 Q 317.006 36.066 319.203 34.041 L 319.203 34.041 L 319.203 34.041 Q 321.399 32.016 324.422 30.961 L 324.422 30.961 L 324.422 30.961 Q 327.445 29.906 331.096 29.906 L 331.096 29.906 L 331.096 29.906 Q 334.518 29.906 337.541 30.932 L 337.541 30.932 L 337.541 30.932 Q 340.564 31.959 342.789 33.927 L 342.789 33.927 L 342.789 33.927 Q 345.014 35.895 346.326 38.69 L 346.326 38.69 L 346.326 38.69 Q 347.638 41.485 347.638 45.022 L 347.638 45.022 L 347.638 49.015 L 323.281 49.015 L 323.281 49.015 Q 323.966 53.749 326.561 55.802 L 326.561 55.802 L 326.561 55.802 Q 329.156 57.856 333.092 57.856 Z  M 331.096 33.613 L 331.096 33.613 L 331.096 33.613 Q 329.441 33.613 328.015 34.241 L 328.015 34.241 L 328.015 34.241 Q 326.589 34.868 325.534 36.237 L 325.534 36.237 L 325.534 36.237 Q 324.479 37.606 323.823 39.774 L 323.823 39.774 L 323.823 39.774 Q 323.167 41.941 323.11 45.022 L 323.11 45.022 L 339.081 45.022 L 339.081 45.022 Q 339.081 42.056 338.397 39.888 L 338.397 39.888 L 338.397 39.888 Q 337.712 37.72 336.6 36.323 L 336.6 36.323 L 336.6 36.323 Q 335.488 34.925 334.033 34.269 L 334.033 34.269 L 334.033 34.269 Q 332.579 33.613 331.096 33.613 Z  M 385.57 42.74 L 385.57 60.708 L 377.584 60.708 L 377.584 42.74 L 377.584 42.74 Q 377.584 38.633 375.531 36.836 L 375.531 36.836 L 375.531 36.836 Q 373.477 35.039 369.598 35.039 L 369.598 35.039 L 362.183 35.039 L 362.183 60.708 L 354.197 60.708 L 354.197 31.047 L 369.598 31.047 L 369.598 31.047 Q 377.755 31.047 381.663 33.984 L 381.663 33.984 L 381.663 33.984 Q 385.57 36.922 385.57 42.74 L 385.57 42.74 Z " fill="rgb(47,47,47)"/></g></g></g></g></svg>